0
SECTION
2
HEADER
0
ENDSEC
0
SECTION
2
TABLES
0
TABLE
2
LAYER
0
ENDTAB
0
ENDSEC
0
SECTION
2
ENTITIES
0
LINE
8
0
10
-1.181428
20
5.466912
11
-1.181428
21
5.466912
0
LINE
8
0
10
-0.898135
20
5.41696
11
-0.898135
21
5.41696
0
CIRCLE
8
0
10
0
20
0
40
0.101563
0
CIRCLE
8
0
10
0
20
0.773
40
0.10155
0
LINE
8
0
10
-0.39125
20
-0.396
11
-0.39125
21
1.13775
0
LINE
8
0
10
0.39125
20
1.285
11
0.27525
21
1.169
0
LINE
8
0
10
0.39125
20
1.285
11
0.50725
21
1.169
0
LINE
8
0
10
0.39125
20
1.169
11
0.39125
21
1.169
0
LINE
8
0
10
0.27525
20
1.169
11
-0.36
21
1.169
0
LINE
8
0
10
0.39125
20
-0.512
11
0.27525
21
-0.396
0
LINE
8
0
10
0.39125
20
-0.512
11
0.50725
21
-0.396
0
LINE
8
0
10
0.39125
20
-0.396
11
0.39125
21
-0.396
0
LINE
8
0
10
-0.077954
20
0.94455
11
0.077954
21
0.94455
0
LINE
8
0
10
0.50725
20
1.169
11
0.50725
21
-0.396
0
LINE
8
0
10
-0.32125
20
1.169
11
-0.32125
21
1.169
0
LINE
8
0
10
-0.39125
20
1.099
11
-0.39125
21
1.099
0
LINE
8
0
10
-0.32125
20
-0.396
11
-0.32125
21
-0.396
0
LINE
8
0
10
-0.39125
20
-0.326
11
-0.39125
21
-0.326
0
LINE
8
0
10
-0.180059
20
-0.009028
11
-0.267259
21
-0.101543
0
LINE
8
0
10
-0.32125
20
1.099
11
-0.32125
21
1.099
0
LINE
8
0
10
-0.32125
20
0.853109
11
-0.32125
21
-0.080109
0
LINE
8
0
10
-0.32125
20
-0.326
11
-0.32125
21
-0.326
0
LINE
8
0
10
-0.17155
20
-0.17155
11
-0.17155
21
-0.17155
0
LINE
8
0
10
-0.17155
20
0.94455
11
-0.17155
21
0.94455
0
LINE
8
0
10
-0.17155
20
0.773
11
-0.17155
21
0.773
0
LINE
8
0
10
-0.267259
20
0.874543
11
-0.180059
21
0.782028
0
LINE
8
0
10
-0.187373
20
1.046314
11
-0.100693
21
0.954364
0
LINE
8
0
10
0.187373
20
1.046314
11
0.100693
21
0.954364
0
LINE
8
0
10
0.43725
20
1.099
11
0.43725
21
1.099
0
LINE
8
0
10
0.164633
20
1.099
11
-0.164633
21
1.099
0
LINE
8
0
10
0.180061
20
0.782028
11
0.383261
21
0.997584
0
LINE
8
0
10
0.180061
20
-0.009028
11
0.383261
21
-0.224584
0
LINE
8
0
10
0.43725
20
-0.203148
11
0.43725
21
0.976148
0
LINE
8
0
10
-0.077954
20
-0.17155
11
0.077954
21
-0.17155
0
LINE
8
0
10
-0.187373
20
-0.273314
11
-0.100693
21
-0.181364
0
LINE
8
0
10
0.187373
20
-0.273314
11
0.100693
21
-0.181364
0
LINE
8
0
10
0.164633
20
-0.326
11
-0.164633
21
-0.326
0
LINE
8
0
10
0.17155
20
0.012407
11
0.17155
21
0.760593
0
LINE
8
0
10
-0.17155
20
0.760594
11
-0.17155
21
0.012406
0
LINE
8
0
10
0
20
0.60145
11
0
21
0.60145
0
LINE
8
0
10
0.0703
20
0.60145
11
-0.0703
21
0.60145
0
LINE
8
0
10
-0.10155
20
0.773
11
-0.10155
21
0.773
0
LINE
8
0
10
-0.10155
20
0.5702
11
-0.10155
21
0.202813
0
LINE
8
0
10
-0.10155
20
0.001593
11
-0.10155
21
0
0
LINE
8
0
10
0.10155
20
0.5702
11
0.10155
21
0.202812
0
LINE
8
0
10
-0.0703
20
0.171563
11
0.0703
21
0.171562
0
LINE
8
0
10
-0.39125
20
-1.61475
11
-0.39125
21
-0.396
0
LINE
8
0
10
-0.36
20
-1.646
11
0.0775
21
-1.646
0
LINE
8
0
10
-0.39125
20
-1.546
11
0.10875
21
-1.546
0
LINE
8
0
10
-0.39125
20
-1.396
11
-0.39125
21
-1.396
0
LINE
8
0
10
0.10875
20
-1.396
11
0.10875
21
-1.396
0
LINE
8
0
10
0.10875
20
-0.396
11
0.10875
21
-0.396
0
LINE
8
0
10
0.10875
20
-1.476612
11
0.10875
21
-1.61475
0
LINE
8
0
10
-0.05069
20
-1.34523
11
-0.05069
21
-1.34523
0
LINE
8
0
10
0.27525
20
-0.396
11
0.224967
21
-0.396
0
LINE
8
0
10
0.189132
20
-0.407293
11
-0.089585
21
-0.602339
0
LINE
8
0
10
-0.11625
20
-0.653546
11
-0.11625
21
-1.299302
0
LINE
8
0
10
-0.11625
20
-1.39774
11
-0.11625
21
-1.39774
0
LINE
8
0
10
0.084826
20
-1.446233
11
-0.020555
21
-1.420818
0
ARC
8
0
10
0.00875
20
-1.299302
40
0.125
50
180
51
256.441151
0
ARC
8
0
10
-0.05375
20
-0.653546
40
0.0625
50
124.984365
51
180
0
ARC
8
0
10
0.224967
20
-0.4585
40
0.0625
50
90
51
124.984365
0
ARC
8
0
10
-0.36
20
1.13775
40
0.03125
50
90
51
180
0
ARC
8
0
10
-0.36
20
-1.61475
40
0.03125
50
180
51
270
0
ARC
8
0
10
0.0775
20
-1.61475
40
0.03125
50
270
51
0
0
ARC
8
0
10
0.0775
20
-1.476612
40
0.03125
50
0
51
76.441151
0
ARC
8
0
10
0.077954
20
0.9758
40
0.03125
50
270
51
316.69
0
ARC
8
0
10
0.164633
20
1.06775
40
0.03125
50
316.69
51
90
0
ARC
8
0
10
-0.164633
20
1.06775
40
0.03125
50
90
51
223.31
0
ARC
8
0
10
-0.077954
20
0.9758
40
0.03125
50
223.31
51
270
0
ARC
8
0
10
0.406
20
0.976148
40
0.03125
50
0
51
136.69
0
ARC
8
0
10
0.406
20
-0.203148
40
0.03125
50
223.31
51
0
0
ARC
8
0
10
0.2028
20
0.012407
40
0.03125
50
180
51
223.31
0
ARC
8
0
10
0.2028
20
0.760593
40
0.03125
50
136.69
51
180
0
ARC
8
0
10
-0.29
20
-0.080109
40
0.03125
50
180
51
316.693946
0
ARC
8
0
10
-0.29
20
0.853109
40
0.03125
50
43.306054
51
180
0
ARC
8
0
10
-0.2028
20
0.760594
40
0.03125
50
0
51
43.306054
0
ARC
8
0
10
-0.2028
20
0.012406
40
0.03125
50
316.693946
51
360
0
ARC
8
0
10
-0.0703
20
0.5702
40
0.03125
50
90
51
180
0
ARC
8
0
10
-0.0703
20
0.202813
40
0.03125
50
180
51
270
0
ARC
8
0
10
0.0703
20
0.202812
40
0.03125
50
270
51
0
0
ARC
8
0
10
0.0703
20
0.5702
40
0.03125
50
0
51
90
0
ARC
8
0
10
0.077954
20
-0.2028
40
0.03125
50
43.31
51
90
0
ARC
8
0
10
0.164633
20
-0.29475
40
0.03125
50
270
51
43.31
0
ARC
8
0
10
-0.164633
20
-0.29475
40
0.03125
50
136.69
51
270
0
ARC
8
0
10
-0.077954
20
-0.2028
40
0.03125
50
90
51
136.69
0
LINE
8
0
10
-0.123649
20
-0.54075
11
0.083229
21
-0.396
0
LINE
8
0
10
-0.32125
20
-0.396
11
0.083229
21
-0.396
0
LINE
8
0
10
-0.32125
20
-0.54075
11
-0.123649
21
-0.54075
0
LINE
8
0
10
-0.18625
20
-0.61075
11
-0.32125
21
-0.61075
0
LINE
8
0
10
-0.32125
20
-0.396
11
-0.32125
21
-0.54075
0
LINE
8
0
10
-0.18625
20
-0.61075
11
-0.18625
21
-1.396
0
LINE
8
0
10
-0.32125
20
-0.61075
11
-0.32125
21
-1.396
0
LINE
8
0
10
-0.18625
20
-1.396
11
-0.18625
21
-1.396
0
LINE
8
0
10
-0.32125
20
-1.396
11
-0.18625
21
-1.396
0
ENDSEC
0
EOF